<?xml version="1.0" encoding="utf-8"?>
<!-- Generator: Adobe Illustrator 23.0.3, SVG Export Plug-In . SVG Version: 6.00 Build 0)  -->
<svg version="1.1" id="Layer_1" xmlns="http://www.w3.org/2000/svg" xmlns:xlink="http://www.w3.org/1999/xlink" x="0px" y="0px"
	 viewBox="0 150 400 100" style="enable-background:new 0 150 400 100;" xml:space="preserve">
<style type="text/css">
	.st0{fill:#EF60A3;}
</style>
<title>dubhack_logo</title>
<path class="st0" d="M41.8,227.1c-1.9,2.5-4.1,4.6-6.7,6.3c-1.6,1-3.5,1.5-5.4,1.6H5.1v-53.8h24.7c1.9,0,3.8,0.5,5.5,1.5
	c2,1.2,5.4,5,6.5,6.6c1,1.5,1.5,3.3,1.4,5.1V222C43.3,223.8,42.8,225.6,41.8,227.1z M29.2,226c0,0,0.5,0,0.6-0.1
	c1.3-0.7,4-3.1,4-4.1v-27.1c0-0.2,0-0.3-0.1-0.4c-1-1.6-2.4-3-4-4c-0.3-0.1-0.5-0.1-0.8-0.1H14.6V226H29.2z"/>
<path class="st0" d="M29.8,236H4.1v-55.8h25.7c2.1,0,4.2,0.6,6,1.7c2.2,1.3,5.7,5.4,6.8,6.8c1.1,1.7,1.7,3.7,1.6,5.7V222
	c0.1,2-0.5,4-1.5,5.7l0,0c-1.9,2.6-4.3,4.8-7,6.6C33.9,235.3,31.8,235.9,29.8,236z M6.1,234h23.7c1.7-0.1,3.4-0.6,4.9-1.5
	c2.4-1.7,4.5-3.7,6.3-6l0,0c0.8-1.4,1.2-2.9,1.2-4.5v-27.6c0.1-1.6-0.3-3.2-1.2-4.5c-1.1-1.6-4.4-5.3-6.2-6.3
	c-1.5-0.9-3.2-1.4-5-1.4H6.1V234z M29.1,227H13.6v-37.8h15.3c0.5,0,0.9,0,1.3,0.2c1.8,1.1,3.2,2.6,4.3,4.3c0.2,0.3,0.2,0.7,0.2,1
	v27.1c0,1.8-3.4,4.4-4.4,5C30,227,29.6,227.1,29.1,227L29.1,227z M29.1,225h0.2c1.3-0.8,3.2-2.6,3.4-3.3v-27c-0.9-1.4-2-2.6-3.5-3.5
	H15.6V225H29.1z"/>
<path class="st0" d="M82.1,181.2h9.4v41c0,1.8-0.5,3.6-1.4,5.1c-1.1,1.5-4.6,5.4-6.6,6.5c-1.7,1-3.6,1.6-5.5,1.7H66.6
	c-2,0-3.9-0.6-5.6-1.6c-1.9-1.1-5.5-5-6.6-6.5c-1-1.5-1.5-3.3-1.4-5.1v-41h9.4V222c0,0,0,0.4,0.1,0.4c1,1.6,2.4,2.9,4,3.9
	c0.1,0.1,0.3,0.1,0.4,0.1h10.7c0.2,0,0.3,0,0.4-0.1c1.5-1,2.9-2.3,3.9-3.8c0.1-0.1,0.1-0.2,0.1-0.4L82.1,181.2z"/>
<path class="st0" d="M78,236.4H66.6c-2.2,0-4.3-0.7-6.1-1.8c-2-1.1-5.7-5.1-6.9-6.8c-1.1-1.7-1.7-3.7-1.6-5.7v-42h11.4V222l0,0
	c0.9,1.4,2.1,2.5,3.5,3.4h10.7c1.3-0.9,2.5-2.1,3.4-3.4v-41.8h11.4v42c0,2-0.5,4-1.6,5.7c-1,1.4-4.7,5.6-6.9,6.8
	C82.2,235.8,80.1,236.4,78,236.4z M54,182.2v40c0,1.6,0.4,3.2,1.3,4.6c1,1.5,4.5,5.2,6.2,6.2c1.5,0.9,3.3,1.4,5.1,1.5H78
	c1.8,0,3.5-0.5,5-1.4c1.8-1,5.2-4.7,6.3-6.2c0.9-1.4,1.3-2.9,1.3-4.6v-40h-7.5v39.9c0,0.3-0.1,0.6-0.2,0.8l-0.1,0.1
	c-1.1,1.7-2.6,3.1-4.2,4.2c-0.3,0.1-0.6,0.2-0.9,0.2H66.9c-0.3,0-0.6-0.1-0.9-0.2c-1.7-1.1-3.2-2.5-4.3-4.1
	c-0.2-0.3-0.3-0.7-0.3-1.1v-39.9H54z"/>
<path class="st0" d="M137.3,228.2c-1.4,1.8-3,3.4-4.8,4.9c-1.9,1.3-4.2,2-6.5,2h-25.3v-53.8H126c2.3,0,4.6,0.7,6.5,2.1
	c1.8,1.4,3.4,3.1,4.8,4.9c1.1,1.7,1.6,3.6,1.5,5.6v6.7c0,3.8-1.4,5.8-3.5,7.8c2.1,2.1,3.5,4,3.5,7.7v6.8
	C138.8,224.7,138.3,226.5,137.3,228.2z M129.4,200.2v-6.4c0-0.2,0-0.3-0.1-0.4c-0.8-1.4-2.5-3.1-3.3-3.1h-15.8v13.6H126
	c0.8,0,2.6-1.6,3.2-3C129.3,200.6,129.4,200.4,129.4,200.2L129.4,200.2z M129.4,222.4V216c0-0.2,0-0.3-0.1-0.4
	c-0.8-1.4-2.5-3.1-3.3-3.1h-15.8V226H126c0.8,0,2.6-1.6,3.2-3C129.3,222.8,129.4,222.6,129.4,222.4L129.4,222.4z"/>
<path class="st0" d="M126,236H99.7v-55.8H126c2.5,0,5,0.8,7.1,2.2c1.9,1.5,3.5,3.2,5,5.1c1.2,1.8,1.8,4,1.7,6.1v6.7
	c0.1,2.9-1,5.8-3.1,7.8c2.1,2,3.2,4.8,3.1,7.7v6.8c0,2.1-0.5,4.2-1.7,6l0,0c-1.5,1.9-3.1,3.6-5,5.1C131,235.2,128.5,236,126,236z
	 M101.7,234H126c2.1,0,4.1-0.6,5.9-1.8c1.7-1.4,3.2-2.9,4.5-4.6c0.9-1.4,1.4-3.1,1.4-4.8v-6.8c0-3.5-1.4-5.2-3.2-7l-0.7-0.7l0.7-0.7
	c2.1-2.1,3.2-3.8,3.2-7.1v-6.7c0-1.8-0.4-3.5-1.4-5c-1.3-1.7-2.8-3.2-4.5-4.6c-1.7-1.2-3.8-1.9-5.9-1.9h-24.2L101.7,234z M126,227
	h-16.8v-15.5H126c1.4,0,3.4,2.1,4.2,3.6c0.1,0.3,0.2,0.6,0.2,0.9v6.4c0,0.3,0,0.6-0.1,0.9v0.1C129.5,224.9,127.5,227,126,227z
	 M111.2,225H126c1-0.5,1.8-1.3,2.3-2.3c0-0.1,0-0.2,0-0.3V216c-0.6-1-1.4-1.9-2.5-2.5h-14.6L111.2,225z M126,204.8h-16.8v-15.6H126
	c1.5,0,3.5,2.4,4.2,3.7l0.1,0.2c0.1,0.2,0.1,0.5,0.1,0.8v6.4c0,0.4,0,0.7-0.2,1.1C129.5,202.6,127.5,204.8,126,204.8z M111.2,202.8
	H126c1-0.6,1.8-1.4,2.3-2.4l0,0c0,0,0-0.1,0-0.2v-6.4v-0.1c-0.6-1-1.4-1.9-2.5-2.6h-14.7L111.2,202.8z"/>
<path class="st0" d="M176.8,235v-22.2h-19.6V235h-9.4v-53.8h9.4v22.6h19.6v-22.6h9.4V235H176.8z"/>
<path class="st0" d="M187.2,236h-11.4v-22.2h-17.6V236h-11.4v-55.8h11.4v22.6h17.6v-22.6h11.4L187.2,236z M177.8,234h7.4v-51.8h-7.4
	v22.6h-21.6v-22.6h-7.4V234h7.4v-22.2h21.6L177.8,234z"/>
<path class="st0" d="M230.5,235l-4-11.4h-20.4l-4,11.4h-10l18.8-53.8h11l18.7,53.8H230.5z M216.4,193.3l-7.3,21.2h14.5L216.4,193.3z
	"/>
<path class="st0" d="M242,236h-12.2l-4-11.4h-19l-4,11.4h-12.2l19.5-55.8h12.4L242,236z M231.2,234h8l-18-51.8h-9.6L193.5,234h7.9
	l4-11.4h21.9L231.2,234z M225,215.6h-17.3l8.7-25.3L225,215.6z M210.5,213.6h11.7l-5.8-17.1L210.5,213.6z"/>
<path class="st0" d="M281.8,228c-2.3,3.1-6.4,7.5-11.4,7.5h-11.2c-2,0-3.9-0.6-5.6-1.6c-2.5-1.8-4.7-3.9-6.6-6.4
	c-1-1.5-1.5-3.3-1.4-5.1V194c0-1.8,0.5-3.5,1.4-5c1.1-1.5,4.7-5.4,6.6-6.5c1.7-1,3.6-1.5,5.6-1.6h11.2c5,0,9.1,4.4,11.4,7.5
	c0.7,1,1.3,2.1,1.9,3.1l-9.2,2.6c0,0-2.7-3.3-4-4.1c-0.1-0.1-0.2-0.1-0.4-0.1h-10.7c-0.1,0-0.2,0-0.4,0.1c-1.6,1-3,2.4-4.1,4
	c-0.1,0.3-0.1,0.7-0.1,1v27.4c0,1.1,2.8,3.4,4.1,4.1c0.1,0.1,0.5,0.1,0.6,0.1h10.2c0.2,0,0.3,0,0.5-0.1c1.9-0.9,4-4.2,4-4.2l9.2,2.4
	C283.2,225.9,282.6,227,281.8,228z"/>
<path class="st0" d="M270.4,236.4h-11.2c-2.2,0-4.3-0.6-6.1-1.8c-2.6-1.8-5-4.1-6.9-6.7c-1.1-1.7-1.6-3.7-1.6-5.7V194
	c0-2,0.5-3.9,1.6-5.6c1.2-1.6,4.9-5.6,6.9-6.8c1.9-1.1,3.9-1.7,6.1-1.8h11.2c4.1,0,8.2,2.6,12.2,7.9c0.6,0.8,1.1,1.7,1.6,2.5l1,1.8
	l-11,3.1l-0.4-0.5c-1.1-1.4-2.3-2.7-3.7-3.9h-10.5c-1.4,0.9-2.6,2.1-3.5,3.4c0,0.1,0,0.3,0,0.6v27.4c0.1,0.6,2.2,2.5,3.5,3.2h10.5
	c1.4-0.6,3.1-3,3.7-3.9l0.4-0.6l11,2.9l-0.5,1.1c-0.5,1.3-1.2,2.5-2,3.6l0,0C278.8,233.7,274.6,236.4,270.4,236.4z M259.2,181.8
	c-1.8,0.1-3.5,0.6-5.1,1.5c-1.7,1-5.2,4.7-6.2,6.2c-0.9,1.3-1.3,2.9-1.2,4.5v28.4c0,1.6,0.4,3.2,1.3,4.6c1.8,2.3,3.9,4.4,6.2,6.1
	c1.5,0.9,3.3,1.4,5.1,1.5h11.2c4.4,0,8.2-3.8,10.6-7.1c0.5-0.7,0.9-1.4,1.3-2.2l-7.3-1.9c-0.8,1.1-2.4,3.2-4,4
	c-0.3,0.1-0.6,0.2-0.9,0.2h-10.3c-0.4,0-0.8,0-1.2-0.2c-1.1-0.6-4.6-3.2-4.6-5v-27.4c0-0.5,0-1,0.2-1.4c1.2-1.8,2.7-3.3,4.5-4.4
	c0.3-0.1,0.5-0.2,0.8-0.2h10.6c0.3,0,0.7,0.1,0.9,0.3c1.4,1.1,2.7,2.4,3.8,3.8l7.3-2.1c-0.4-0.7-0.8-1.4-1.2-2
	c-3.6-4.7-7.2-7.1-10.6-7.1L259.2,181.8z"/>
<path class="st0" d="M320.4,235l-18.6-22.5h-1V235h-9.5v-53.8h9.5v22.4h0.9c6.2-7.4,12.5-15.1,18.6-22.4h11.6L309.5,208
	c6.8,8.2,15.9,19.3,22.5,27H320.4z"/>
<path class="st0" d="M334.2,236H320l-18.2-21.9V236h-11.4v-55.8h11.4v21.7c3-3.5,6-7.2,8.9-10.7s6-7.2,8.9-10.7l0.3-0.4h14.2
	L310.8,208c2.4,2.8,5,6,7.6,9.2c5,6,10.2,12.2,14.3,17.1L334.2,236z M320.9,234h9c-3.9-4.6-8.5-10.2-12.9-15.5
	c-2.9-3.5-5.7-6.8-8.2-9.8l-0.5-0.6l21.6-25.8h-9c-2.8,3.4-5.7,6.8-8.6,10.3c-3.2,3.9-6.5,7.9-9.8,11.7l-0.3,0.4h-2.4v-22.4h-7.4
	V234h7.4v-22.5h2.5L320.9,234z"/>
<path class="st0" d="M375.2,227.4c-1.8,2.5-4.1,4.7-6.6,6.5c-1.7,1-3.6,1.5-5.6,1.6h-15.7c-5.3,0-9.1-4.3-11.4-7.5
	c-0.6-0.9-1.2-1.8-1.6-2.8l8.9-3c1.1,1.6,2.5,2.9,4,4.1c0.2,0.1,0.4,0.1,0.6,0.1h14.7c0.2,0,0.4,0,0.5-0.1c1.4-0.7,4-3.4,4-4.1v-5.3
	c0-0.7-0.4-1.3-1.1-1.5l-23.4-6.7c-4.6-1.3-7-5.7-7-9.8V194c-0.1-1.8,0.4-3.6,1.4-5.1c1.9-2.5,4.1-4.7,6.7-6.5
	c1.7-1,3.6-1.5,5.6-1.6h13.3c5.4,0,9.1,4.4,11.4,7.5c0.7,1,1.3,2,1.8,3.1l-9.1,2.6c-1.1-1.6-2.5-3-4-4.1c0,0-0.1-0.1-0.5-0.1h-12.6
	c-0.2,0-0.4,0-0.5,0.1c-1.4,0.7-3.9,3.2-3.9,4v4.5c0,0.7,0.4,1.3,1,1.5l23.5,6.8c4.6,1.3,7,5.8,7,9.8v5.7
	C376.7,224,376.2,225.8,375.2,227.4z"/>
<path class="st0" d="M363,236.4h-15.7c-5.7,0-9.7-4.5-12.2-7.9c-0.5-0.7-0.9-1.4-1.3-2.2l-1-1.8l10.8-3.6l0.4,0.6
	c1,1.4,2.2,2.7,3.6,3.8h15.1c1.3-0.9,2.5-2,3.5-3.3v-5.2c0-0.2-0.1-0.4-0.3-0.6l-23.4-6.7c-5.3-1.5-7.7-6.6-7.7-10.8V194
	c-0.1-2,0.5-4,1.5-5.7c2-2.6,4.3-4.9,7-6.8c1.9-1.1,3.9-1.7,6.1-1.8h13.3c6.2,0,10.3,5.3,12.2,7.9c0.8,1,1.4,2.2,1.9,3.3l0.5,1.1
	l-10.9,3.1l-0.4-0.6c-1-1.4-2.2-2.7-3.6-3.8h-12.8c-0.1,0-0.1,0-0.2,0c-1.3,0.8-2.4,1.9-3.2,3.1v4.4c0,0.2,0.1,0.4,0.2,0.6l23.5,6.8
	c5.3,1.5,7.7,6.6,7.7,10.8v5.7c0.1,2-0.5,4-1.6,5.7c-1.9,2.6-4.2,4.9-6.9,6.8C367.3,235.7,365.2,236.3,363,236.4z M335.8,225.8
	c0.3,0.6,0.6,1.1,1,1.6c2.2,3,5.8,7.1,10.6,7.1H363c1.8-0.1,3.5-0.6,5.1-1.5c2.4-1.7,4.5-3.8,6.2-6.2l0,0c0.9-1.3,1.3-2.9,1.2-4.6
	v-5.7c0-3.4-2-7.7-6.3-8.8l-23.5-6.9c-1.1-0.3-1.8-1.4-1.7-2.5v-4.5c0-1.4,3-4.1,4.4-4.9c0.3-0.1,0.7-0.2,1-0.2h12.7
	c0.4,0,0.8,0.1,1.1,0.3c1.5,1.1,2.7,2.4,3.8,3.8l7.3-2.1c-0.3-0.7-0.7-1.3-1.2-1.9c-2.7-3.5-6-7.1-10.6-7.1h-13.3
	c-1.8,0.1-3.5,0.6-5.1,1.5c-2.4,1.7-4.5,3.8-6.3,6.2c-0.8,1.4-1.2,3-1.2,4.6v4.9c0,3.4,2,7.7,6.3,8.9l23.4,6.7
	c1.1,0.3,1.8,1.4,1.8,2.5v5.3c0,1.5-3.5,4.4-4.6,5c-0.3,0.1-0.7,0.2-1,0.2h-14.8c-0.4,0-0.7,0-1.1-0.2l-0.1-0.1
	c-1.4-1.1-2.6-2.4-3.7-3.8L335.8,225.8z"/>
</svg>
